M48
;DRILL file {KiCad (5.0.0)} date 05/20/19 15:54:51
;FORMAT={-:-/ absolute / inch / decimal}
FMAT,2
INCH,TZ
T1C0.0295
T2C0.0461
%
G90
G05
M72
T1
X5.2362Y-2.8346
X5.315Y-2.8346
X5.3937Y-2.8346
X5.4724Y-2.8346
X5.5512Y-2.8346
X4.0945Y-2.8346
X4.1732Y-2.8346
X4.252Y-2.8346
X4.3307Y-2.8346
X4.4094Y-2.8346
X4.4882Y-2.8346
X4.5669Y-2.8346
X4.6457Y-2.8346
X4.7244Y-2.8346
X4.8031Y-2.8346
X4.8819Y-2.8346
X4.9606Y-2.8346
X5.0394Y-2.8346
X5.748Y-2.8346
X5.8268Y-2.8346
X5.9055Y-2.8346
X5.9843Y-2.8346
X6.063Y-2.8346
X6.1417Y-2.8346
X6.2205Y-2.8346
X6.2992Y-2.8346
X6.378Y-2.8346
X6.4567Y-2.8346
X6.5354Y-2.8346
T2
X4.225Y-3.4152
X4.225Y-3.514
X4.2744Y-3.3296
X4.2744Y-3.5996
X4.36Y-3.2801
X4.36Y-3.649
X4.4094Y-3.4646
X4.4589Y-3.2801
X4.4589Y-3.649
X4.5444Y-3.3296
X4.5444Y-3.5996
X4.5939Y-3.4152
X4.5939Y-3.514
X5.1333Y-3.4056
X5.1333Y-3.5236
X5.2133Y-3.3101
X5.2133Y-3.6191
X5.315Y-3.2736
X5.315Y-3.4646
X5.315Y-3.6555
X5.4166Y-3.3101
X5.4166Y-3.6191
X5.4966Y-3.4056
X5.4966Y-3.5236
X6.0389Y-3.4056
X6.0389Y-3.5236
X6.1189Y-3.3101
X6.1189Y-3.6191
X6.2205Y-3.2736
X6.2205Y-3.4646
X6.2205Y-3.6555
X6.3221Y-3.3101
X6.3221Y-3.6191
X6.4021Y-3.4056
X6.4021Y-3.5236
T0
M30
