M48
; DRILL file {KiCad (5.1.2)-1} date 5/23/2019 12:13:52 PM
; FORMAT={-:-/ absolute / inch / decimal}
; #@! TF.CreationDate,2019-05-23T12:13:52-04:00
; #@! TF.GenerationSoftware,Kicad,Pcbnew,(5.1.2)-1
FMAT,2
INCH
T1C0.0295
T2C0.0461
%
G90
G05
T1
X5.9449Y-2.874
X6.0236Y-2.874
X6.1024Y-2.874
X6.1811Y-2.874
X6.2598Y-2.874
X6.3386Y-2.874
X6.4173Y-2.874
X6.4961Y-2.874
X6.5748Y-2.874
X6.6535Y-2.874
X6.7323Y-2.874
X3.9764Y-2.874
X4.0551Y-2.874
X4.1339Y-2.874
X4.2126Y-2.874
X4.2913Y-2.874
X4.3701Y-2.874
X4.4488Y-2.874
X4.5276Y-2.874
X4.6063Y-2.874
X4.685Y-2.874
X4.7638Y-2.874
X6.9291Y-2.874
X7.0079Y-2.874
X7.0866Y-2.874
X7.1654Y-2.874
X7.2441Y-2.874
X7.3228Y-2.874
X7.4016Y-2.874
X7.4803Y-2.874
X7.5591Y-2.874
X7.6378Y-2.874
X7.7165Y-2.874
X4.9606Y-2.874
X5.0394Y-2.874
X5.1181Y-2.874
X5.1969Y-2.874
X5.2756Y-2.874
X5.3543Y-2.874
X5.4331Y-2.874
X5.5118Y-2.874
X5.5906Y-2.874
X5.6693Y-2.874
X5.748Y-2.874
T2
X4.1885Y-3.2481
X4.1885Y-3.3661
X4.2559Y-3.1535
X4.2559Y-3.4606
X4.3701Y-3.1161
X4.3701Y-3.3071
X4.3701Y-3.498
X4.4843Y-3.1535
X4.4843Y-3.4606
X4.5517Y-3.2481
X4.5517Y-3.3661
X7.1412Y-3.2481
X7.1412Y-3.3661
X7.2087Y-3.1535
X7.2087Y-3.4606
X7.3228Y-3.1161
X7.3228Y-3.3071
X7.3228Y-3.498
X7.437Y-3.1535
X7.437Y-3.4606
X7.5044Y-3.2481
X7.5044Y-3.3661
X5.1727Y-3.2481
X5.1727Y-3.3661
X5.2402Y-3.1535
X5.2402Y-3.4606
X5.3543Y-3.1161
X5.3543Y-3.3071
X5.3543Y-3.498
X5.4685Y-3.1535
X5.4685Y-3.4606
X5.5359Y-3.2481
X5.5359Y-3.3661
X6.157Y-3.2481
X6.157Y-3.3661
X6.2244Y-3.1535
X6.2244Y-3.4606
X6.3386Y-3.1161
X6.3386Y-3.3071
X6.3386Y-3.498
X6.4528Y-3.1535
X6.4528Y-3.4606
X6.5202Y-3.2481
X6.5202Y-3.3661
T0
M30
